<svg width="24" height="24" viewBox="0 0 24 24" fill="none" xmlns="http://www.w3.org/2000/svg">
<path d="M17.5 20.3849C16.015 20.3849 15.08 20.8381 14.255 21.2482C13.54 21.6043 12.957 21.8957 12 21.8957C11.01 21.8957 10.46 21.6259 9.745 21.2482C8.92 20.8381 8.018 20.3849 6.5 20.3849C4.982 20.3849 4.08 20.8381 3.255 21.2482C2.782 21.4856 2.364 21.6906 1.858 21.8094C1.363 21.9173 1 22.3058 1 22.7914V22.8993C1 23.5468 1.616 24.0108 2.254 23.8813C3.068 23.7194 3.684 23.4173 4.245 23.1367C4.96 22.7806 5.532 22.4892 6.5 22.4892C7.468 22.4892 8.04 22.759 8.755 23.1367C9.58 23.5468 10.482 24 12 24C13.518 24 14.42 23.5468 15.245 23.1367C15.96 22.7806 16.543 22.4892 17.5 22.4892C18.49 22.4892 19.04 22.759 19.755 23.1367C20.327 23.4173 20.943 23.7302 21.768 23.8921C21.9166 23.9205 22.0698 23.9166 22.2167 23.8806C22.3636 23.8446 22.5006 23.7774 22.6181 23.6838C22.7356 23.5901 22.8307 23.4723 22.8967 23.3386C22.9627 23.2049 22.998 23.0586 23 22.9101V22.813C23 22.3165 22.626 21.9281 22.131 21.8201C21.625 21.7122 21.218 21.5072 20.745 21.259C19.92 20.8381 18.985 20.3849 17.5 20.3849ZM17.5 15.5827C16.015 15.5827 15.08 16.0468 14.255 16.446C13.54 16.7914 12.957 17.0935 12 17.0935C11.01 17.0935 10.46 16.8237 9.745 16.446C8.92 16.036 8.018 15.5827 6.5 15.5827C4.982 15.5827 4.08 16.0468 3.255 16.446C2.782 16.6727 2.364 16.8885 1.847 17.0072C1.363 17.1151 1 17.5036 1 17.9892V18.0971C1.00006 18.2463 1.03401 18.3935 1.09939 18.5282C1.16476 18.6629 1.2599 18.7816 1.3779 18.8756C1.4959 18.9697 1.63379 19.0367 1.78154 19.0719C1.92928 19.1072 2.08317 19.1096 2.232 19.0791C3.057 18.9173 3.673 18.6043 4.245 18.3345C4.96 17.9568 5.51 17.6871 6.5 17.6871C7.49 17.6871 8.04 17.9568 8.755 18.3345C9.58 18.7446 10.482 19.1978 12 19.1978C13.518 19.1978 14.42 18.7338 15.245 18.3345C15.96 17.9568 16.51 17.6871 17.5 17.6871C18.49 17.6871 19.04 17.9568 19.755 18.3345C20.327 18.6151 20.943 18.9281 21.768 19.0899C21.9175 19.1185 22.0716 19.1144 22.2193 19.0778C22.367 19.0412 22.5046 18.973 22.6223 18.8782C22.74 18.7833 22.8349 18.6641 22.9002 18.5291C22.9655 18.3941 22.9996 18.2466 23 18.0971V18C23 17.5036 22.626 17.1151 22.131 17.0072C21.625 16.8993 21.218 16.6942 20.745 16.446C19.92 16.036 18.985 15.5827 17.5 15.5827ZM20.745 6.86331C19.92 6.45324 19.007 6 17.5 6C15.993 6 15.08 6.45324 14.255 6.86331C13.54 7.20863 12.957 7.51079 12 7.51079C11.01 7.51079 10.46 7.24101 9.745 6.86331C8.92 6.46403 8.018 6 6.5 6C4.982 6 4.08 6.45324 3.255 6.86331C2.782 7.10072 2.364 7.30576 1.858 7.42446C1.363 7.53237 1 7.92086 1 8.40647V8.48201C1 9.1295 1.594 9.60432 2.232 9.47482C3.057 9.31295 3.673 9 4.245 8.73022C4.96 8.3741 5.532 8.08273 6.5 8.08273C7.468 8.08273 8.04 8.35252 8.755 8.73022C9.58 9.14029 10.482 9.59352 12 9.59352C13.518 9.59352 14.42 9.1295 15.245 8.73022C15.96 8.38489 16.543 8.08273 17.5 8.08273C18.49 8.08273 19.04 8.35252 19.755 8.73022C20.327 9.01079 20.943 9.32374 21.768 9.48561C21.9175 9.51423 22.0716 9.51008 22.2193 9.47347C22.367 9.43687 22.5046 9.3687 22.6223 9.27384C22.74 9.17898 22.8349 9.05979 22.9002 8.92477C22.9655 8.78975 22.9996 8.64225 23 8.49281V8.39568C23 7.89928 22.626 7.51079 22.131 7.40288C21.625 7.29496 21.218 7.10072 20.745 6.86331ZM17.5 10.7806C16.015 10.7806 15.08 11.2446 14.255 11.6439C13.54 12.0216 12.99 12.2914 12 12.2914C11.01 12.2914 10.46 12.0216 9.745 11.6439C8.92 11.2338 8.018 10.7806 6.5 10.7806C4.982 10.7806 4.08 11.2446 3.255 11.6439C2.782 11.8921 2.375 12.0971 1.869 12.205C1.374 12.3129 1 12.7014 1 13.1978V13.295C1.00006 13.4441 1.03401 13.5914 1.09939 13.7261C1.16476 13.8607 1.2599 13.9794 1.3779 14.0735C1.4959 14.1675 1.63379 14.2346 1.78154 14.2698C1.92928 14.305 2.08317 14.3075 2.232 14.277C3.057 14.1151 3.673 13.8022 4.245 13.5324C4.96 13.1871 5.543 12.8849 6.5 12.8849C7.457 12.8849 8.04 13.1547 8.755 13.5324C9.58 13.9424 10.482 14.3957 12 14.3957C13.518 14.3957 14.42 13.9317 15.245 13.5324C15.96 13.1871 16.543 12.8849 17.5 12.8849C18.49 12.8849 19.04 13.1547 19.755 13.5324C20.327 13.813 20.943 14.1259 21.768 14.2878C21.9166 14.3162 22.0698 14.3123 22.2167 14.2763C22.3636 14.2403 22.5006 14.1731 22.6181 14.0795C22.7356 13.9858 22.8307 13.8679 22.8967 13.7342C22.9627 13.6006 22.998 13.4543 23 13.3058V13.2086C23 12.7122 22.626 12.3237 22.131 12.2158C21.625 12.1079 21.218 11.9029 20.745 11.6547C19.92 11.2338 18.985 10.7806 17.5 10.7806Z" fill="url(#paint0_linear_3_66)"/>
<defs>
<linearGradient id="paint0_linear_3_66" x1="12" y1="6" x2="12" y2="24" gradientUnits="userSpaceOnUse">
<stop stop-color="#FFBF00"/>
<stop offset="1" stop-color="#F2A40C"/>
</linearGradient>
</defs>
</svg>
