<svg width="24" height="24" viewBox="0 0 24 24" fill="none" xmlns="http://www.w3.org/2000/svg">
<path d="M18.75 7.66667H17.625V5.47619C17.625 2.45333 15.105 0 12 0C8.895 0 6.375 2.45333 6.375 5.47619V7.66667H5.25C4.0125 7.66667 3 8.65238 3 9.85714V20.8095C3 22.0143 4.0125 23 5.25 23H18.75C19.9875 23 21 22.0143 21 20.8095V9.85714C21 8.65238 19.9875 7.66667 18.75 7.66667ZM12 17.5238C10.7625 17.5238 9.75 16.5381 9.75 15.3333C9.75 14.1286 10.7625 13.1429 12 13.1429C13.2375 13.1429 14.25 14.1286 14.25 15.3333C14.25 16.5381 13.2375 17.5238 12 17.5238ZM8.625 7.66667V5.47619C8.625 3.6581 10.1325 2.19048 12 2.19048C13.8675 2.19048 15.375 3.6581 15.375 5.47619V7.66667H8.625Z" fill="url(#paint0_linear_3_57)"/>
<defs>
<linearGradient id="paint0_linear_3_57" x1="12" y1="0" x2="12" y2="23" gradientUnits="userSpaceOnUse">
<stop stop-color="#FFBF00"/>
<stop offset="1" stop-color="#F2A40C"/>
</linearGradient>
</defs>
</svg>
