<svg width="24" height="24" viewBox="0 0 24 24" fill="none" xmlns="http://www.w3.org/2000/svg">
<path d="M2.18345 4.52573C0.789096 6.00288 0.00400735 8.00496 1.52985e-05 10.0938C-0.00397676 12.1826 0.773453 14.188 2.16215 15.6712C3.72774 11.8357 6.51812 8.63194 10.0008 6.72548C6.99479 9.41953 4.96564 13.1359 4.26026 17.2392C7.02933 18.6267 10.4374 18.1191 12.7272 15.6937C15.9117 12.3208 16.8063 3.12691 16.998 0.600008C17.0047 0.519717 16.9946 0.438852 16.9686 0.363103C16.9426 0.287355 16.9013 0.218563 16.8475 0.161569C16.7937 0.104575 16.7287 0.060763 16.6572 0.0332161C16.5857 0.00566926 16.5093 -0.00494315 16.4335 0.00212543C14.0479 0.20518 5.36789 1.15277 2.18345 4.52573Z" fill="url(#paint0_linear_3_59)"/>
<defs>
<linearGradient id="paint0_linear_3_59" x1="8.5" y1="0" x2="8.5" y2="18" gradientUnits="userSpaceOnUse">
<stop stop-color="#FFBF00"/>
<stop offset="1" stop-color="#F2A40C"/>
</linearGradient>
</defs>
</svg>
