<svg width="26" height="26" viewBox="0 0 26 26" fill="none" xmlns="http://www.w3.org/2000/svg">
<path d="M21.0816 10.8333C20.9748 10.9913 20.9115 11.1746 20.8982 11.3648C20.8849 11.555 20.922 11.7454 21.0058 11.9167C21.2745 12.5439 21.4641 13.2026 21.5691 13.8775C21.848 15.6218 21.5872 17.4097 20.8216 19.0017C20.7287 19.1763 20.5897 19.3221 20.4197 19.4233C20.2497 19.5245 20.0553 19.5773 19.8575 19.5758H6.15331C5.95438 19.5763 5.75918 19.5219 5.5891 19.4187C5.41903 19.3155 5.28065 19.1675 5.18914 18.9908C4.49568 17.5841 4.19696 16.0155 4.32484 14.4523C4.45272 12.8891 5.0024 11.3899 5.91528 10.1145C6.82816 8.83918 8.07003 7.83544 9.50848 7.21034C10.9469 6.58523 12.5281 6.3622 14.0833 6.565C14.8702 6.6575 15.6399 6.86178 16.3691 7.17167C16.5404 7.25549 16.7308 7.29262 16.921 7.2793C17.1112 7.26599 17.2946 7.2027 17.4525 7.09584C17.617 6.98744 17.7489 6.83623 17.8339 6.65847C17.9188 6.48071 17.9537 6.28314 17.9348 6.08702C17.9159 5.8909 17.8438 5.70366 17.7264 5.54546C17.6089 5.38725 17.4506 5.26407 17.2683 5.18917C15.1755 4.2918 12.8532 4.07668 10.6312 4.57438C8.40916 5.07207 6.40047 6.25727 4.89042 7.96162C3.38038 9.66597 2.44577 11.8028 2.21935 14.0686C1.99293 16.3344 2.48622 18.6139 3.62914 20.5833C3.8182 20.9108 4.08966 21.1831 4.41655 21.3731C4.74343 21.5632 5.11437 21.6644 5.49248 21.6667H20.4966C20.8784 21.6682 21.2538 21.5688 21.5849 21.3786C21.9159 21.1883 22.1908 20.914 22.3816 20.5833C23.2184 19.1332 23.7077 17.5089 23.811 15.8379C23.9144 14.1669 23.6291 12.4947 22.9775 10.9525C22.8949 10.7767 22.7667 10.6264 22.6061 10.5172C22.4456 10.408 22.2586 10.3439 22.0648 10.3318C21.871 10.3196 21.6775 10.3597 21.5046 10.448C21.3316 10.5362 21.1855 10.6693 21.0816 10.8333Z" fill="url(#paint0_linear_3_61)"/>
<path d="M11.4725 13.6392C11.0659 14.0457 10.8375 14.5971 10.8375 15.1721C10.8375 15.4568 10.8936 15.7387 11.0025 16.0017C11.1115 16.2647 11.2712 16.5037 11.4725 16.705C11.6738 16.9063 11.9128 17.066 12.1758 17.1749C12.4388 17.2839 12.7207 17.34 13.0054 17.34C13.5804 17.34 14.1318 17.1116 14.5383 16.705L20.67 7.50751L11.4725 13.6392Z" fill="url(#paint1_linear_3_61)"/>
<defs>
<linearGradient id="paint0_linear_3_61" x1="12.9987" y1="4.31244" x2="12.9987" y2="21.6667" gradientUnits="userSpaceOnUse">
<stop stop-color="#FFBF00"/>
<stop offset="1" stop-color="#F2A40C"/>
</linearGradient>
<linearGradient id="paint1_linear_3_61" x1="15.7538" y1="7.50751" x2="15.7538" y2="17.34" gradientUnits="userSpaceOnUse">
<stop stop-color="#FFBF00"/>
<stop offset="1" stop-color="#F2A40C"/>
</linearGradient>
</defs>
</svg>
